# xmcd
#
# Track frame offsets: 
#        150
#        18141
#        32646
#        54956
#        78421
#        90493
#        110921
#        133383
#        148727
#        163626
#
# Disc length: 2321 seconds
#
# Revision: 0
# Processed by: cddbd v1.5.2PL0 Copyright (c) Steve Scherf et al.
# Submitted via: ExactAudioCopyFreeDBPlugin 1.0
#
DISCID=80090f0a
DTITLE=Mayeux and Broussard - While The Gittin's Good
DYEAR=2012
DGENRE=Country
TTITLE0=Leave Me Where I Lie
TTITLE1=Sky High Ryder
TTITLE2=Papa's Pistol
TTITLE3=Hollow Ground
TTITLE4=Long Day Blues
TTITLE5=Somewhere Trouble Don't Go
TTITLE6=The Ground That Keeps Him Standing
TTITLE7=Hey Mama Blues
TTITLE8=Lord I'm Gonna Die
TTITLE9=The Place I Long To Be
EXTD=
EXTT0=
EXTT1=
EXTT2=
EXTT3=
EXTT4=
EXTT5=
EXTT6=
EXTT7=
EXTT8=
EXTT9=
PLAYORDER=
